<?xml version="1.0" encoding="utf-8"?>
<!-- Generator: Adobe Illustrator 22.0.0, SVG Export Plug-In . SVG Version: 6.00 Build 0)  -->
<svg version="1.1" id="Layer_1" xmlns="http://www.w3.org/2000/svg" xmlns:xlink="http://www.w3.org/1999/xlink" x="0px" y="0px"
	 viewBox="0 0 199.5 332.4" style="enable-background:new 0 0 199.5 332.4;" xml:space="preserve">
<style type="text/css">
	.st0{fill:none;}
	.st1{fill:#3F7FC0;}
	.st2{fill:url(#SVGID_1_);}
</style>
<pattern  y="332.4" width="143.1" height="178.7" patternUnits="userSpaceOnUse" id="New_Pattern_3" viewBox="5 -178.7 143.1 178.7" style="overflow:visible;">
	<g>
		<rect x="5" y="-178.7" class="st0" width="143.1" height="178.7"/>
		<ellipse class="st1" cx="119.4" cy="-17.9" rx="5" ry="5"/>
		<ellipse class="st1" cx="83.7" cy="-17.9" rx="5" ry="5"/>
		<ellipse class="st1" cx="47.9" cy="-17.9" rx="5" ry="5"/>
		<ellipse class="st1" cx="12.1" cy="-17.9" rx="5" ry="5"/>
		<ellipse class="st1" cx="133.8" cy="-53.6" rx="5" ry="5"/>
		<ellipse class="st1" cx="98" cy="-53.6" rx="5" ry="5"/>
		<ellipse class="st1" cx="62.2" cy="-53.6" rx="5" ry="5"/>
		<ellipse class="st1" cx="26.4" cy="-53.6" rx="5" ry="5"/>
		<ellipse class="st1" cx="148.1" cy="-89.3" rx="5" ry="5"/>
		<ellipse class="st1" cx="112.3" cy="-89.3" rx="5" ry="5"/>
		<ellipse class="st1" cx="76.5" cy="-89.3" rx="5" ry="5"/>
		<ellipse class="st1" cx="40.7" cy="-89.3" rx="5" ry="5"/>
		<ellipse class="st1" cx="5" cy="-89.3" rx="5" ry="5"/>
		<ellipse class="st1" cx="126.6" cy="-125.1" rx="5" ry="5"/>
		<ellipse class="st1" cx="90.8" cy="-125.1" rx="5" ry="5"/>
		<ellipse class="st1" cx="55.1" cy="-125.1" rx="5" ry="5"/>
		<ellipse class="st1" cx="19.3" cy="-125.1" rx="5" ry="5"/>
		<ellipse class="st1" cx="140.9" cy="-160.8" rx="5" ry="5"/>
		<ellipse class="st1" cx="105.1" cy="-160.8" rx="5" ry="5"/>
		<ellipse class="st1" cx="69.4" cy="-160.8" rx="5" ry="5"/>
		<ellipse class="st1" cx="33.6" cy="-160.8" rx="5" ry="5"/>
	</g>
</pattern>
<pattern  id="SVGID_1_" xlink:href="#New_Pattern_3" patternTransform="matrix(0.3275 0 0 0.3417 -5590.9155 -5458.5747)">
</pattern>
<path class="st2" d="M-1432.6-250.7v-4h110h8.2h121.3l156.5,282.6l-116.3,4.2l-150.6-272c-5.6-6.5-12.3-10.6-19.5-10.6h-109.6
	L-1432.6-250.7z"/>
<rect x="-1902" y="-792.2" class="st0" width="695" height="1825"/>
<g>
	<path class="st1" d="M196,331.7l3.5,0l-1.4-2.5C197.1,329.7,196.3,330.6,196,331.7z"/>
	<path class="st1" d="M180,305.3c0,2.1,1.6,3.8,3.7,3.8c1,0,2-0.4,2.6-1.2l-3.5-6.3C181.2,302,180,303.5,180,305.3z"/>
	<path class="st1" d="M73.1,116.9c2,0,3.7-1.7,3.7-3.8c0-2.1-1.6-3.8-3.7-3.8s-3.7,1.7-3.7,3.8C69.4,115.2,71,116.9,73.1,116.9z"/>
	<path class="st1" d="M155.4,252l-3-5.4c-0.1,0-0.2,0-0.3,0c-2,0-3.7,1.7-3.7,3.8c0,2.1,1.6,3.8,3.7,3.8
		C153.5,254.2,154.8,253.3,155.4,252z"/>
	<path class="st1" d="M129.4,250.4c0-2.1-1.6-3.8-3.7-3.8s-3.7,1.7-3.7,3.8c0,2.1,1.6,3.8,3.7,3.8S129.4,252.5,129.4,250.4z"/>
	<path class="st1" d="M103.1,250.4c0-2.1-1.6-3.8-3.7-3.8s-3.7,1.7-3.7,3.8c0,2.1,1.6,3.8,3.7,3.8S103.1,252.5,103.1,250.4z"/>
	<path class="st1" d="M76.7,250.4c0-2.1-1.6-3.8-3.7-3.8s-3.7,1.7-3.7,3.8c0,2.1,1.6,3.8,3.7,3.8S76.7,252.5,76.7,250.4z"/>
	<path class="st1" d="M139.8,223.9l-2.6-4.7c-0.3-0.1-0.6-0.1-0.9-0.1c-2,0-3.7,1.7-3.7,3.8c0,2.1,1.6,3.8,3.7,3.8
		C138,226.7,139.4,225.5,139.8,223.9z"/>
	<path class="st1" d="M113.6,222.9c0-2.1-1.6-3.8-3.7-3.8s-3.7,1.7-3.7,3.8c0,2.1,1.6,3.8,3.7,3.8S113.6,225,113.6,222.9z"/>
	<path class="st1" d="M87.3,222.9c0-2.1-1.6-3.8-3.7-3.8s-3.7,1.7-3.7,3.8c0,2.1,1.6,3.8,3.7,3.8S87.3,225,87.3,222.9z"/>
	<path class="st1" d="M120.5,199.3c2,0,3.6-1.6,3.6-3.7l-1.9-3.5c-0.5-0.3-1.1-0.5-1.7-0.5c-2,0-3.7,1.7-3.7,3.8
		C116.8,197.6,118.5,199.3,120.5,199.3z"/>
	<path class="st1" d="M90.5,195.5c0,2.1,1.6,3.8,3.7,3.8c2,0,3.7-1.7,3.7-3.8c0-2.1-1.6-3.8-3.7-3.8
		C92.1,191.7,90.5,193.4,90.5,195.5z"/>
	<path class="st1" d="M104.7,171.8c2,0,3.7-1.7,3.7-3.8c0-0.5-0.1-0.9-0.3-1.4l-0.5-1c-0.7-0.9-1.7-1.5-2.9-1.5
		c-2,0-3.7,1.7-3.7,3.8S102.7,171.8,104.7,171.8z"/>
	<path class="st1" d="M74.7,168c0,2.1,1.6,3.8,3.7,3.8s3.7-1.7,3.7-3.8s-1.6-3.8-3.7-3.8S74.7,165.9,74.7,168z"/>
	<path class="st1" d="M88.9,144.4c2,0,3.7-1.7,3.7-3.8c0-2.1-1.6-3.8-3.7-3.8s-3.7,1.7-3.7,3.8C85.2,142.7,86.8,144.4,88.9,144.4z"
		/>
	<path class="st1" d="M173.2,328.9c-1.7,0-3.2,1.3-3.5,2.9l7.1,0C176.3,330.2,174.9,328.9,173.2,328.9z"/>
	<path class="st1" d="M146.8,328.9c-1.8,0-3.2,1.3-3.6,3l7.2,0C150,330.2,148.6,328.9,146.8,328.9z"/>
	<path class="st1" d="M120.5,328.9c-1.8,0-3.3,1.4-3.6,3.1l7.2,0C123.7,330.3,122.3,328.9,120.5,328.9z"/>
	<path class="st1" d="M94.1,328.9c-1.8,0-3.3,1.4-3.6,3.2l7.2,0C97.5,330.3,96,328.9,94.1,328.9z"/>
	<path class="st1" d="M157.4,301.5c-2,0-3.7,1.7-3.7,3.8c0,2.1,1.6,3.8,3.7,3.8c2,0,3.7-1.7,3.7-3.8
		C161,303.2,159.4,301.5,157.4,301.5z"/>
	<path class="st1" d="M131,301.5c-2,0-3.7,1.7-3.7,3.8c0,2.1,1.6,3.8,3.7,3.8s3.7-1.7,3.7-3.8C134.7,303.2,133,301.5,131,301.5z"/>
	<path class="st1" d="M104.7,301.5c-2,0-3.7,1.7-3.7,3.8c0,2.1,1.6,3.8,3.7,3.8s3.7-1.7,3.7-3.8
		C108.3,303.2,106.7,301.5,104.7,301.5z"/>
	<path class="st1" d="M78.3,301.5c-2,0-3.7,1.7-3.7,3.8c0,2.1,1.6,3.8,3.7,3.8s3.7-1.7,3.7-3.8C82,303.2,80.4,301.5,78.3,301.5z"/>
	<path class="st1" d="M170.9,280l-3.3-6c-1.9,0.2-3.3,1.8-3.3,3.8c0,2.1,1.6,3.8,3.7,3.8C169.1,281.6,170.2,281,170.9,280z"/>
	<path class="st1" d="M145.2,277.8c0-2.1-1.6-3.8-3.7-3.8c-2,0-3.7,1.7-3.7,3.8c0,2.1,1.6,3.8,3.7,3.8
		C143.6,281.6,145.2,279.9,145.2,277.8z"/>
	<path class="st1" d="M118.9,277.8c0-2.1-1.6-3.8-3.7-3.8s-3.7,1.7-3.7,3.8c0,2.1,1.6,3.8,3.7,3.8S118.9,279.9,118.9,277.8z"/>
	<path class="st1" d="M92.5,277.8c0-2.1-1.6-3.8-3.7-3.8s-3.7,1.7-3.7,3.8c0,2.1,1.6,3.8,3.7,3.8S92.5,279.9,92.5,277.8z"/>
	<path class="st1" d="M43.1,113.1c0,2.1,1.6,3.8,3.7,3.8s3.7-1.7,3.7-3.8c0-2.1-1.6-3.8-3.7-3.8S43.1,111,43.1,113.1z"/>
	<path class="st1" d="M16.7,113.1c0,2.1,1.6,3.8,3.7,3.8s3.7-1.7,3.7-3.8c0-2.1-1.6-3.8-3.7-3.8S16.7,111,16.7,113.1z"/>
	<path class="st1" d="M57.3,89.5c2,0,3.7-1.7,3.7-3.8c0-2.1-1.6-3.8-3.7-3.8s-3.7,1.7-3.7,3.8C53.6,87.8,55.2,89.5,57.3,89.5z"/>
	<path class="st1" d="M27.3,85.7c0,2.1,1.6,3.8,3.7,3.8s3.7-1.7,3.7-3.8c0-2.1-1.6-3.8-3.7-3.8S27.3,83.6,27.3,85.7z"/>
	<path class="st1" d="M8.2,85.7c0-2.1-1.6-3.8-3.7-3.8s-3.7,1.7-3.7,3.8c0,2.1,1.6,3.8,3.7,3.8S8.2,87.8,8.2,85.7z"/>
	<ellipse class="st1" cx="41.5" cy="58.2" rx="3.7" ry="3.8"/>
	<path class="st1" d="M11.5,58.2c0,2.1,1.6,3.8,3.7,3.8s3.7-1.7,3.7-3.8c0-2.1-1.6-3.8-3.7-3.8S11.5,56.1,11.5,58.2z"/>
	<ellipse class="st1" cx="25.7" cy="30.8" rx="3.7" ry="3.8"/>
	<path class="st1" d="M3,30.8c0-1.9-1.3-3.4-3-3.7v7.5C1.7,34.2,3,32.6,3,30.8z"/>
	<path class="st1" d="M9.8,7.1c2,0,3.7-1.7,3.7-3.8s-1.6-3.8-3.7-3.8c-2,0-3.7,1.7-3.7,3.8S7.8,7.1,9.8,7.1z"/>
	<path class="st1" d="M50.4,250.4c0-2.1-1.6-3.8-3.7-3.8s-3.7,1.7-3.7,3.8c0,2.1,1.6,3.8,3.7,3.8S50.4,252.5,50.4,250.4z"/>
	<path class="st1" d="M24,250.4c0-2.1-1.6-3.8-3.7-3.8s-3.7,1.7-3.7,3.8c0,2.1,1.6,3.8,3.7,3.8S24,252.5,24,250.4z"/>
	<path class="st1" d="M60.9,222.9c0-2.1-1.6-3.8-3.7-3.8s-3.7,1.7-3.7,3.8c0,2.1,1.6,3.8,3.7,3.8S60.9,225,60.9,222.9z"/>
	<ellipse class="st1" cx="30.9" cy="222.9" rx="3.7" ry="3.8"/>
	<path class="st1" d="M8.2,222.9c0-2.1-1.6-3.8-3.7-3.8s-3.7,1.7-3.7,3.8c0,2.1,1.6,3.8,3.7,3.8S8.2,225,8.2,222.9z"/>
	<ellipse class="st1" cx="67.8" cy="195.5" rx="3.7" ry="3.8"/>
	<ellipse class="st1" cx="41.5" cy="195.5" rx="3.7" ry="3.8"/>
	<path class="st1" d="M15.1,199.3c2,0,3.7-1.7,3.7-3.8c0-2.1-1.6-3.8-3.7-3.8s-3.7,1.7-3.7,3.8C11.5,197.6,13.1,199.3,15.1,199.3z"
		/>
	<path class="st1" d="M48.3,168c0,2.1,1.6,3.8,3.7,3.8c2,0,3.7-1.7,3.7-3.8s-1.6-3.8-3.7-3.8C50,164.2,48.3,165.9,48.3,168z"/>
	<path class="st1" d="M25.7,164.2c-2,0-3.7,1.7-3.7,3.8s1.6,3.8,3.7,3.8s3.7-1.7,3.7-3.8S27.7,164.2,25.7,164.2z"/>
	<path class="st1" d="M3,168c0-1.9-1.3-3.4-3-3.7v7.5C1.7,171.4,3,169.9,3,168z"/>
	<path class="st1" d="M58.9,140.6c0,2.1,1.6,3.8,3.7,3.8c2,0,3.7-1.7,3.7-3.8c0-2.1-1.6-3.8-3.7-3.8
		C60.5,136.8,58.9,138.5,58.9,140.6z"/>
	<path class="st1" d="M32.5,140.6c0,2.1,1.6,3.8,3.7,3.8s3.7-1.7,3.7-3.8c0-2.1-1.6-3.8-3.7-3.8S32.5,138.5,32.5,140.6z"/>
	<path class="st1" d="M9.8,136.8c-2,0-3.7,1.7-3.7,3.8c0,2.1,1.6,3.8,3.7,3.8c2,0,3.7-1.7,3.7-3.8C13.5,138.5,11.9,136.8,9.8,136.8z
		"/>
	<path class="st1" d="M67.8,328.9c-1.9,0-3.4,1.5-3.6,3.3l7.2,0C71.2,330.4,69.6,328.9,67.8,328.9z"/>
	<path class="st1" d="M41.5,328.9c-1.9,0-3.4,1.5-3.6,3.4l7.2,0C44.9,330.4,43.3,328.9,41.5,328.9z"/>
	<path class="st1" d="M15.1,328.9c-1.9,0-3.5,1.6-3.6,3.5l7.3,0C18.6,330.5,17,328.9,15.1,328.9z"/>
	<path class="st1" d="M52,301.5c-2,0-3.7,1.7-3.7,3.8c0,2.1,1.6,3.8,3.7,3.8c2,0,3.7-1.7,3.7-3.8C55.6,303.2,54,301.5,52,301.5z"/>
	<path class="st1" d="M25.7,301.5c-2,0-3.7,1.7-3.7,3.8c0,2.1,1.6,3.8,3.7,3.8s3.7-1.7,3.7-3.8C29.3,303.2,27.7,301.5,25.7,301.5z"
		/>
	<path class="st1" d="M3,305.3c0-1.9-1.3-3.4-3-3.7v7.5C1.7,308.7,3,307.1,3,305.3z"/>
	<path class="st1" d="M66.2,277.8c0-2.1-1.6-3.8-3.7-3.8c-2,0-3.7,1.7-3.7,3.8c0,2.1,1.6,3.8,3.7,3.8
		C64.5,281.6,66.2,279.9,66.2,277.8z"/>
	<path class="st1" d="M39.8,277.8c0-2.1-1.6-3.8-3.7-3.8s-3.7,1.7-3.7,3.8c0,2.1,1.6,3.8,3.7,3.8S39.8,279.9,39.8,277.8z"/>
	<path class="st1" d="M13.5,277.8c0-2.1-1.6-3.8-3.7-3.8c-2,0-3.7,1.7-3.7,3.8c0,2.1,1.6,3.8,3.7,3.8
		C11.9,281.6,13.5,279.9,13.5,277.8z"/>
</g>
</svg>
