<?xml version="1.0" encoding="utf-8"?>
<!-- Generator: Adobe Illustrator 22.0.0, SVG Export Plug-In . SVG Version: 6.00 Build 0)  -->
<svg version="1.1" id="Layer_1" xmlns="http://www.w3.org/2000/svg" xmlns:xlink="http://www.w3.org/1999/xlink" x="0px" y="0px"
	 viewBox="0 0 407 335.3" style="enable-background:new 0 0 407 335.3;" xml:space="preserve">
<style type="text/css">
	.st0{fill:#3F7FC0;}
</style>
<g>
	<path class="st0" d="M401.6,6.1c1.6,0,2.9-1.4,2.9-3.1S403.2,0,401.6,0c-1.6,0-2.9,1.4-2.9,3.1S400,6.1,401.6,6.1z"/>
	<path class="st0" d="M380.4,6.1c1.6,0,2.9-1.4,2.9-3.1S382.1,0,380.4,0s-2.9,1.4-2.9,3.1S378.8,6.1,380.4,6.1z"/>
	<path class="st0" d="M359.3,6.1c1.6,0,2.9-1.4,2.9-3.1S360.9,0,359.3,0s-2.9,1.4-2.9,3.1S357.7,6.1,359.3,6.1z"/>
	<ellipse class="st0" cx="401.6" cy="113.2" rx="2.9" ry="3.1"/>
	<ellipse class="st0" cx="380.4" cy="113.2" rx="2.9" ry="3.1"/>
	<ellipse class="st0" cx="359.3" cy="113.2" rx="2.9" ry="3.1"/>
	<ellipse class="st0" cx="388.9" cy="91.2" rx="2.9" ry="3.1"/>
	<ellipse class="st0" cx="367.8" cy="91.2" rx="2.9" ry="3.1"/>
	<path class="st0" d="M394.4,69.1c0,1.7,1.3,3.1,2.9,3.1c1.6,0,2.9-1.4,2.9-3.1s-1.3-3.1-2.9-3.1C395.7,66.1,394.4,67.4,394.4,69.1z
		"/>
	<path class="st0" d="M373.3,69.1c0,1.7,1.3,3.1,2.9,3.1c1.6,0,2.9-1.4,2.9-3.1s-1.3-3.1-2.9-3.1C374.6,66.1,373.3,67.4,373.3,69.1z
		"/>
	<path class="st0" d="M402.9,47.1c0,1.7,1.3,3.1,2.9,3.1c0.5,0,0.8-0.3,1.2-0.5v-5.1c-0.4-0.2-0.8-0.5-1.2-0.5
		C404.2,44.1,402.9,45.4,402.9,47.1z"/>
	<path class="st0" d="M381.7,47.1c0,1.7,1.3,3.1,2.9,3.1c1.6,0,2.9-1.4,2.9-3.1c0-1.7-1.3-3.1-2.9-3.1
		C383,44.1,381.7,45.4,381.7,47.1z"/>
	<path class="st0" d="M360.6,47.1c0,1.7,1.3,3.1,2.9,3.1c1.6,0,2.9-1.4,2.9-3.1c0-1.7-1.3-3.1-2.9-3.1
		C361.9,44.1,360.6,45.4,360.6,47.1z"/>
	<path class="st0" d="M393.1,28.1c1.6,0,2.9-1.4,2.9-3.1c0-1.7-1.3-3.1-2.9-3.1s-2.9,1.4-2.9,3.1C390.2,26.8,391.5,28.1,393.1,28.1z
		"/>
	<path class="st0" d="M372,28.1c1.6,0,2.9-1.4,2.9-3.1c0-1.7-1.3-3.1-2.9-3.1s-2.9,1.4-2.9,3.1C369,26.8,370.4,28.1,372,28.1z"/>
	<ellipse class="st0" cx="401.6" cy="223.3" rx="2.9" ry="3.1"/>
	<ellipse class="st0" cx="380.4" cy="223.3" rx="2.9" ry="3.1"/>
	<ellipse class="st0" cx="359.3" cy="223.3" rx="2.9" ry="3.1"/>
	<path class="st0" d="M391.8,201.3c0-1.7-1.3-3.1-2.9-3.1c-1.6,0-2.9,1.4-2.9,3.1c0,1.7,1.3,3.1,2.9,3.1
		C390.5,204.4,391.8,203,391.8,201.3z"/>
	<path class="st0" d="M370.7,201.3c0-1.7-1.3-3.1-2.9-3.1c-1.6,0-2.9,1.4-2.9,3.1c0,1.7,1.3,3.1,2.9,3.1
		C369.4,204.4,370.7,203,370.7,201.3z"/>
	<path class="st0" d="M397.3,182.3c1.6,0,2.9-1.4,2.9-3.1c0-1.7-1.3-3.1-2.9-3.1c-1.6,0-2.9,1.4-2.9,3.1
		C394.4,181,395.7,182.3,397.3,182.3z"/>
	<path class="st0" d="M379.1,179.3c0-1.7-1.3-3.1-2.9-3.1c-1.6,0-2.9,1.4-2.9,3.1c0,1.7,1.3,3.1,2.9,3.1
		C377.8,182.3,379.1,181,379.1,179.3z"/>
	<path class="st0" d="M402.9,157.2c0,1.7,1.3,3.1,2.9,3.1c0.5,0,0.8-0.3,1.2-0.5v-5.1c-0.4-0.2-0.8-0.5-1.2-0.5
		C404.2,154.2,402.9,155.6,402.9,157.2z"/>
	<path class="st0" d="M384.7,160.3c1.6,0,2.9-1.4,2.9-3.1c0-1.7-1.3-3.1-2.9-3.1c-1.6,0-2.9,1.4-2.9,3.1
		C381.7,158.9,383,160.3,384.7,160.3z"/>
	<path class="st0" d="M366.5,157.2c0-1.7-1.3-3.1-2.9-3.1c-1.6,0-2.9,1.4-2.9,3.1c0,1.7,1.3,3.1,2.9,3.1
		C365.2,160.3,366.5,158.9,366.5,157.2z"/>
	<ellipse class="st0" cx="393.1" cy="135.2" rx="2.9" ry="3.1"/>
	<ellipse class="st0" cx="372" cy="135.2" rx="2.9" ry="3.1"/>
	<path class="st0" d="M401.6,330.4l2.4,4.4c0.2-0.4,0.5-0.8,0.5-1.3C404.5,331.8,403.2,330.4,401.6,330.4z"/>
	<path class="st0" d="M389.5,308.6l2,3.6c0.1-0.3,0.3-0.5,0.3-0.8C391.8,310,390.8,309,389.5,308.6z"/>
	<path class="st0" d="M397.3,286.3c-1.6,0-2.9,1.4-2.9,3.1c0,1.7,1.3,3.1,2.9,3.1c1.6,0,2.9-1.4,2.9-3.1
		C400.3,287.7,399,286.3,397.3,286.3z"/>
	<path class="st0" d="M377.5,286.9l1.5,2.8c0-0.1,0.1-0.2,0.1-0.3C379.1,288.2,378.4,287.4,377.5,286.9z"/>
	<path class="st0" d="M402.9,267.4c0,1.7,1.3,3.1,2.9,3.1c0.5,0,0.8-0.3,1.2-0.5v-5c-0.4-0.2-0.8-0.5-1.2-0.5
		C404.2,264.3,402.9,265.7,402.9,267.4z"/>
	<path class="st0" d="M384.7,264.3c-1.6,0-2.9,1.4-2.9,3.1c0,1.7,1.3,3.1,2.9,3.1c1.6,0,2.9-1.4,2.9-3.1
		C387.6,265.7,386.3,264.3,384.7,264.3z"/>
	<ellipse class="st0" cx="393.1" cy="245.4" rx="2.9" ry="3.1"/>
	<ellipse class="st0" cx="372" cy="245.4" rx="2.9" ry="3.1"/>
	<path class="st0" d="M338.2,6.1c1.6,0,2.9-1.4,2.9-3.1S339.8,0,338.2,0s-2.9,1.4-2.9,3.1S336.5,6.1,338.2,6.1z"/>
	<path class="st0" d="M317,6.1c1.6,0,2.9-1.4,2.9-3.1S318.7,0,317,0s-2.9,1.4-2.9,3.1S315.4,6.1,317,6.1z"/>
	<path class="st0" d="M295.9,6.1c1.6,0,2.9-1.4,2.9-3.1S297.5,0,295.9,0c-1.6,0-2.9,1.4-2.9,3.1S294.3,6.1,295.9,6.1z"/>
	<path class="st0" d="M277.7,3.1c0-1.7-1.3-3.1-2.9-3.1c-1.6,0-2.9,1.4-2.9,3.1s1.3,3.1,2.9,3.1C276.4,6.1,277.7,4.7,277.7,3.1z"/>
	<ellipse class="st0" cx="338.2" cy="113.2" rx="2.9" ry="3.1"/>
	<ellipse class="st0" cx="317" cy="113.2" rx="2.9" ry="3.1"/>
	<ellipse class="st0" cx="295.9" cy="113.2" rx="2.9" ry="3.1"/>
	<ellipse class="st0" cx="346.6" cy="91.2" rx="2.9" ry="3.1"/>
	<ellipse class="st0" cx="325.5" cy="91.2" rx="2.9" ry="3.1"/>
	<ellipse class="st0" cx="304.4" cy="91.2" rx="2.9" ry="3.1"/>
	<ellipse class="st0" cx="283.2" cy="91.2" rx="2.9" ry="3.1"/>
	<path class="st0" d="M352.1,69.1c0,1.7,1.3,3.1,2.9,3.1c1.6,0,2.9-1.4,2.9-3.1s-1.3-3.1-2.9-3.1C353.5,66.1,352.1,67.4,352.1,69.1z
		"/>
	<path class="st0" d="M331,69.1c0,1.7,1.3,3.1,2.9,3.1c1.6,0,2.9-1.4,2.9-3.1s-1.3-3.1-2.9-3.1C332.3,66.1,331,67.4,331,69.1z"/>
	<path class="st0" d="M315.7,69.1c0-1.7-1.3-3.1-2.9-3.1c-1.6,0-2.9,1.4-2.9,3.1s1.3,3.1,2.9,3.1C314.4,72.2,315.7,70.8,315.7,69.1z
		"/>
	<path class="st0" d="M294.6,69.1c0-1.7-1.3-3.1-2.9-3.1c-1.6,0-2.9,1.4-2.9,3.1s1.3,3.1,2.9,3.1C293.3,72.2,294.6,70.8,294.6,69.1z
		"/>
	<path class="st0" d="M339.5,47.1c0,1.7,1.3,3.1,2.9,3.1c1.6,0,2.9-1.4,2.9-3.1c0-1.7-1.3-3.1-2.9-3.1
		C340.8,44.1,339.5,45.4,339.5,47.1z"/>
	<path class="st0" d="M318.3,47.1c0,1.7,1.3,3.1,2.9,3.1c1.6,0,2.9-1.4,2.9-3.1c0-1.7-1.3-3.1-2.9-3.1
		C319.6,44.1,318.3,45.4,318.3,47.1z"/>
	<path class="st0" d="M303.1,47.1c0-1.7-1.3-3.1-2.9-3.1c-1.6,0-2.9,1.4-2.9,3.1c0,1.7,1.3,3.1,2.9,3.1
		C301.7,50.2,303.1,48.8,303.1,47.1z"/>
	<path class="st0" d="M281.9,47.1c0-1.7-1.3-3.1-2.9-3.1c-1.6,0-2.9,1.4-2.9,3.1c0,1.7,1.3,3.1,2.9,3.1
		C280.6,50.2,281.9,48.8,281.9,47.1z"/>
	<path class="st0" d="M350.8,28.1c1.6,0,2.9-1.4,2.9-3.1c0-1.7-1.3-3.1-2.9-3.1s-2.9,1.4-2.9,3.1C347.9,26.8,349.2,28.1,350.8,28.1z
		"/>
	<path class="st0" d="M329.7,28.1c1.6,0,2.9-1.4,2.9-3.1c0-1.7-1.3-3.1-2.9-3.1c-1.6,0-2.9,1.4-2.9,3.1
		C326.8,26.8,328.1,28.1,329.7,28.1z"/>
	<path class="st0" d="M308.6,28.1c1.6,0,2.9-1.4,2.9-3.1c0-1.7-1.3-3.1-2.9-3.1c-1.6,0-2.9,1.4-2.9,3.1
		C305.6,26.8,307,28.1,308.6,28.1z"/>
	<path class="st0" d="M290.4,25.1c0-1.7-1.3-3.1-2.9-3.1c-1.6,0-2.9,1.4-2.9,3.1c0,1.7,1.3,3.1,2.9,3.1
		C289.1,28.1,290.4,26.8,290.4,25.1z"/>
	<path class="st0" d="M346.6,198.2c-1.6,0-2.9,1.4-2.9,3.1c0,1.7,1.3,3.1,2.9,3.1s2.9-1.4,2.9-3.1
		C349.6,199.6,348.2,198.2,346.6,198.2z"/>
	<path class="st0" d="M358,179.3c0-1.7-1.3-3.1-2.9-3.1c-1.6,0-2.9,1.4-2.9,3.1c0,1.7,1.3,3.1,2.9,3.1
		C356.7,182.3,358,181,358,179.3z"/>
	<path class="st0" d="M333.9,176.2c-1.6,0-2.9,1.4-2.9,3.1c0,1.7,1.3,3.1,2.9,3.1c1.6,0,2.9-1.4,2.9-3.1
		C336.9,177.6,335.6,176.2,333.9,176.2z"/>
	<path class="st0" d="M345.3,157.2c0-1.7-1.3-3.1-2.9-3.1c-1.6,0-2.9,1.4-2.9,3.1c0,1.7,1.3,3.1,2.9,3.1
		C344,160.3,345.3,158.9,345.3,157.2z"/>
	<path class="st0" d="M321.3,154.2c-1.6,0-2.9,1.4-2.9,3.1c0,1.7,1.3,3.1,2.9,3.1c1.6,0,2.9-1.4,2.9-3.1
		C324.2,155.6,322.9,154.2,321.3,154.2z"/>
	<ellipse class="st0" cx="350.8" cy="135.2" rx="2.9" ry="3.1"/>
	<ellipse class="st0" cx="329.7" cy="135.2" rx="2.9" ry="3.1"/>
	<ellipse class="st0" cx="308.6" cy="135.2" rx="2.9" ry="3.1"/>
	<path class="st0" d="M256.6,3.1c0-1.7-1.3-3.1-2.9-3.1c-1.6,0-2.9,1.4-2.9,3.1s1.3,3.1,2.9,3.1C255.2,6.1,256.6,4.7,256.6,3.1z"/>
	<path class="st0" d="M232.5,0c-1.6,0-2.9,1.4-2.9,3.1s1.3,3.1,2.9,3.1c1.6,0,2.9-1.4,2.9-3.1S234.1,0,232.5,0z"/>
	<path class="st0" d="M211.4,0c-1.6,0-2.9,1.4-2.9,3.1s1.3,3.1,2.9,3.1c1.6,0,2.9-1.4,2.9-3.1S213,0,211.4,0z"/>
	<path class="st0" d="M190.2,0c-1.6,0-2.9,1.4-2.9,3.1s1.3,3.1,2.9,3.1s2.9-1.4,2.9-3.1S191.8,0,190.2,0z"/>
	<path class="st0" d="M270.5,66.1c-1.6,0-2.9,1.4-2.9,3.1s1.3,3.1,2.9,3.1s2.9-1.4,2.9-3.1S272.2,66.1,270.5,66.1z"/>
	<path class="st0" d="M257.9,44.1c-1.6,0-2.9,1.4-2.9,3.1c0,1.7,1.3,3.1,2.9,3.1c1.6,0,2.9-1.4,2.9-3.1
		C260.8,45.4,259.5,44.1,257.9,44.1z"/>
	<path class="st0" d="M269.2,25.1c0-1.7-1.3-3.1-2.9-3.1s-2.9,1.4-2.9,3.1c0,1.7,1.3,3.1,2.9,3.1S269.2,26.8,269.2,25.1z"/>
	<path class="st0" d="M245.2,22c-1.6,0-2.9,1.4-2.9,3.1c0,1.7,1.3,3.1,2.9,3.1s2.9-1.4,2.9-3.1C248.1,23.4,246.8,22,245.2,22z"/>
	<path class="st0" d="M169.1,0c-1.6,0-2.9,1.4-2.9,3.1s1.3,3.1,2.9,3.1c1.6,0,2.9-1.4,2.9-3.1S170.7,0,169.1,0z"/>
	<path class="st0" d="M148,0c-1.6,0-2.9,1.4-2.9,3.1s1.3,3.1,2.9,3.1c1.6,0,2.9-1.4,2.9-3.1S149.6,0,148,0z"/>
	<path class="st0" d="M126.8,0c-1.6,0-2.9,1.4-2.9,3.1s1.3,3.1,2.9,3.1c1.6,0,2.9-1.4,2.9-3.1S128.4,0,126.8,0z"/>
	<path class="st0" d="M105.7,0c-1.6,0-2.9,1.4-2.9,3.1s1.3,3.1,2.9,3.1s2.9-1.4,2.9-3.1S107.3,0,105.7,0z"/>
	<path class="st0" d="M84.5,0c-1.6,0-2.9,1.4-2.9,3.1s1.3,3.1,2.9,3.1s2.9-1.4,2.9-3.1S86.2,0,84.5,0z"/>
	<path class="st0" d="M63.4,0c-1.6,0-2.9,1.4-2.9,3.1s1.3,3.1,2.9,3.1s2.9-1.4,2.9-3.1S65,0,63.4,0z"/>
	<path class="st0" d="M42.3,0c-1.6,0-2.9,1.4-2.9,3.1s1.3,3.1,2.9,3.1c1.6,0,2.9-1.4,2.9-3.1S43.9,0,42.3,0z"/>
	<path class="st0" d="M21.1,0c-1.6,0-2.9,1.4-2.9,3.1s1.3,3.1,2.9,3.1c1.6,0,2.9-1.4,2.9-3.1S22.8,0,21.1,0z"/>
	<path class="st0" d="M2.9,3.1C2.9,1.4,1.6,0,0,0c0,0,0,0,0,0v6.1c0,0,0,0,0,0C1.6,6.1,2.9,4.7,2.9,3.1z"/>
</g>
</svg>
