<?xml version="1.0" encoding="utf-8"?>
<!-- Generator: Adobe Illustrator 22.0.0, SVG Export Plug-In . SVG Version: 6.00 Build 0)  -->
<svg version="1.1" id="Layer_1" xmlns="http://www.w3.org/2000/svg" xmlns:xlink="http://www.w3.org/1999/xlink" x="0px" y="0px"
	 viewBox="0 0 99.5 99.5" style="enable-background:new 0 0 99.5 99.5;" xml:space="preserve">
<style type="text/css">
	.st0{fill:#008CFF;}
</style>
<g>
	<path class="st0" d="M49.1,99.7c-0.4,0-0.9,0-1.3,0c-27.4-0.7-49.2-23.6-48.5-51C0,21.4,21.9,0.1,49.1,0.1c0.4,0,0.9,0,1.3,0
		C63.7,0.4,76,5.9,85.2,15.6c9.2,9.6,14,22.3,13.7,35.6C98.2,78.3,76.3,99.7,49.1,99.7z M49.1,2.1C23,2.1,2,22.5,1.3,48.7
		C0.7,75,21.6,97,47.9,97.6c26.7,0.7,48.3-20,49-46.6c0.3-12.8-4.3-24.9-13.1-34.1S63.1,2.4,50.3,2.1C49.9,2.1,49.5,2.1,49.1,2.1z"
		/>
</g>
<g>
	
		<rect x="48.4" y="18.1" transform="matrix(0.7071 -0.7071 0.7071 0.7071 -20.879 49.3348)" class="st0" width="1.5" height="63.6"/>
</g>
<g>
	
		<rect x="17.3" y="49.1" transform="matrix(0.7071 -0.7071 0.7071 0.7071 -20.879 49.3348)" class="st0" width="63.6" height="1.5"/>
</g>
</svg>
