<?xml version="1.0" encoding="utf-8"?>
<!-- Generator: Adobe Illustrator 23.1.1, SVG Export Plug-In . SVG Version: 6.00 Build 0)  -->
<svg version="1.1" id="Layer_1" xmlns="http://www.w3.org/2000/svg" xmlns:xlink="http://www.w3.org/1999/xlink" x="0px" y="0px"
	 viewBox="0 0 51.7 48.3" style="enable-background:new 0 0 51.7 48.3;" xml:space="preserve">
<style type="text/css">
	.st0{fill:#008CFF;}
</style>
<path class="st0" d="M29,44h-8.5V26.2h-4.7V18h4.7v-4.6c0-4.2,2.6-9.1,10.1-9.1c2.6,0,4.5,0.2,4.6,0.3L36,4.7l-0.2,7.7h-5
	c-1.6,0-1.8,0.4-1.8,1.9V18h7l-0.4,8.2H29V44z M22.2,42.2h5V24.4h6.7l0.2-4.6h-6.9v-5.6c0-1.8,0.4-3.7,3.6-3.7H34l0.1-4.3
	C33.3,6.1,32,6,30.5,6c-6.1,0-8.3,3.8-8.3,7.4v6.4h-4.7v4.6h4.7C22.2,24.4,22.2,42.2,22.2,42.2z"/>
</svg>
