<?xml version="1.0" encoding="utf-8"?>
<!-- Generator: Adobe Illustrator 23.1.1, SVG Export Plug-In . SVG Version: 6.00 Build 0)  -->
<svg version="1.1" id="Layer_1" xmlns="http://www.w3.org/2000/svg" xmlns:xlink="http://www.w3.org/1999/xlink" x="0px" y="0px"
	 viewBox="0 0 51.7 48.3" style="enable-background:new 0 0 51.7 48.3;" xml:space="preserve">
<style type="text/css">
	.st0{fill:#008CFF;}
</style>
<path class="st0" d="M34.2,4H17.5C11,4,5.8,9.3,5.8,15.8v16.6c0,6.5,5.3,11.8,11.8,11.8h16.6C40.7,44.3,46,39,46,32.5V15.8
	C46,9.3,40.7,4,34.2,4z M34.2,42.4H17.5c-4.8,0-9.9-3.8-9.9-9.9V15.8c0-5.6,5.3-9.9,9.9-9.9h16.6c4.8,0,9.9,3.8,9.9,9.9v16.6
	C44.1,37.3,40.1,42.4,34.2,42.4z"/>
<path class="st0" d="M36.7,11.5c-1,0-1.8,0.8-1.8,1.8s0.8,1.8,1.8,1.8s1.8-0.8,1.8-1.8S37.7,11.5,36.7,11.5z M25.9,13.2
	c-6,0-11,4.9-11,11s4.9,11,11,11s11-4.9,11-11S31.9,13.2,25.9,13.2z M34.7,24.1c0,4.9-4,8.8-8.8,8.8c-4.9,0-8.8-4-8.8-8.8
	s4-8.8,8.8-8.8S34.7,19.3,34.7,24.1z"/>
</svg>
