<svg xmlns="http://www.w3.org/2000/svg" viewBox="0 0 255.17 56.99"><defs><style>.cls-1{fill:#008cff;}.cls-2{fill:#474f4f;}</style></defs><title>Asset 8</title><g id="Layer_2" data-name="Layer 2"><g id="Layer_1-2" data-name="Layer 1"><circle class="cls-1" cx="247.98" cy="49.11" r="7.19"/><path class="cls-2" d="M0,0V55.79H11.33V0ZM25.24,27,40.59,0H28.11L13.05,27.68,29.26,55.79H41.88Z"/><path class="cls-2" d="M188.36,27V17.75H174.62c4.14,0,6-2.65,6-6.13V5.5h-9.44v6.12c0,3.48-2,6.13-6,6.13h-2V27h7V43.87c0,7.45,4.8,11.92,12.25,11.92h6V46.52h-3.14c-3,0-4.64-1.16-4.64-4.47V27Z"/><path class="cls-2" d="M81.23,36c0-12.41-7.12-20-19.2-20-9.94,0-19.05,8-19.05,20.37C43,49.38,52.42,57,63,57c9.27,0,15.56-5.46,17.39-11.92H70c-1.32,1.82-3.64,3-6.95,3a9.64,9.64,0,0,1-9.77-8.94H81.07C81.07,38.94,81.23,37.45,81.23,36ZM53.58,32a8.29,8.29,0,0,1,8.61-7.62c6,0,8.61,3.81,8.61,7.62Z"/><path class="cls-2" d="M105.9,32.32l-5.63-1.16c-2.15-.33-3.47-1.65-3.47-3.47,0-2.16,2.15-3.81,5-3.81,3.31,0,5,1.49,5.62,3.14h9.44c-.49-4.14-4.14-11.09-15.23-11.09-8.28,0-14.41,5.63-14.41,12.58,0,5.47,3.32,9.94,10.93,11.59l5,1.16c3.15.67,4.3,2.16,4.3,3.81,0,2-1.65,3.81-5.13,3.81-3.64,0-5.79-1.66-6.62-3.81H86.2C86.7,49.38,90.67,57,102.26,57c10.27,0,15.07-6.45,15.07-12.75C117.33,38.61,113.52,34,105.9,32.32Z"/><path class="cls-2" d="M157.4,49.71v-19c0-8-4.64-14.74-16.89-14.74-9.44,0-15.07,5.46-16.39,11.09h10.6a6.72,6.72,0,0,1,5.79-2.65c4.47,0,6.62,2.16,6.62,5,0,1.33-.66,2.48-3,2.82l-9.43,1.32c-6.46,1-11.6,4.8-11.6,11.76,0,6.12,5,11.59,13.25,11.59,5.8,0,9.44-2.65,11.43-5.63a34.84,34.84,0,0,0,.33,4.63h9.6C157.57,54.51,157.4,51.69,157.4,49.71ZM147.13,40.1c0,6.79-4.14,8.95-8.61,8.95-3.31,0-5-2.16-5-4.48,0-3,2.15-4.47,4.8-4.8l8.77-1.32Z"/><path class="cls-2" d="M214.19,15.93c-11.59,0-20.2,8.44-20.2,20.53C194,48.38,202.6,57,214.19,57s20.37-8.61,20.37-20.53C234.56,24.37,225.78,15.93,214.19,15.93Zm0,31.46c-5.13,0-9.76-3.64-9.76-10.93s4.63-11.09,9.76-11.09,9.94,3.81,9.94,11.09S219.33,47.39,214.19,47.39Z"/></g></g></svg>