<?xml version="1.0" encoding="utf-8"?>
<!-- Generator: Adobe Illustrator 22.0.0, SVG Export Plug-In . SVG Version: 6.00 Build 0)  -->
<svg version="1.1" id="Layer_1" xmlns="http://www.w3.org/2000/svg" xmlns:xlink="http://www.w3.org/1999/xlink" x="0px" y="0px"
	 viewBox="0 0 99.6 99.6" style="enable-background:new 0 0 99.6 99.6;" xml:space="preserve">
<style type="text/css">
	.st0{fill:#F4F3F1;}
</style>
<g>
	<g>
		<g>
			<path class="st0" d="M49.8,99.6c-0.4,0-0.9,0-1.3,0C21.1,98.9-0.7,76,0,48.5C0.7,21.3,22.6,0,49.8,0c0.4,0,0.9,0,1.3,0
				c13.3,0.3,25.7,5.8,34.8,15.5c9.2,9.6,14,22.3,13.7,35.6C98.9,78.3,77,99.6,49.8,99.6z M49.8,2C23.7,2,2.7,22.5,2,48.6
				c-0.7,26.3,20.2,48.3,46.6,49c26.7,0.7,48.3-20,49-46.6c0.3-12.8-4.3-24.9-13.1-34.1S63.8,2.3,51,2C50.6,2,50.2,2,49.8,2z"/>
		</g>
	</g>
	<g>
		<path class="st0" d="M33.1,76.4V23.2l46,26.6L33.1,76.4z M35.1,26.7v46.2l40-23.1L35.1,26.7z"/>
	</g>
</g>
</svg>
