<?xml version="1.0" encoding="utf-8"?>
<!-- Generator: Adobe Illustrator 23.1.1, SVG Export Plug-In . SVG Version: 6.00 Build 0)  -->
<svg version="1.1" id="Layer_1" xmlns="http://www.w3.org/2000/svg" xmlns:xlink="http://www.w3.org/1999/xlink" x="0px" y="0px"
	 viewBox="0 0 65.2 48.3" style="enable-background:new 0 0 65.2 48.3;" xml:space="preserve">
<style type="text/css">
	.st0{fill:#008CFF;}
</style>
<path class="st0" d="M34,44C33.9,44,34,44,34,44c-6.3,0-13.2-0.2-20.4-0.6c-4.3-0.2-7.6-3.5-8.1-8c-0.8-7.5-0.8-15.1,0-22.5
	c0.5-4.5,3.8-7.8,8.1-8c12.5-0.8,25.3-0.8,38.2,0c4.3,0.3,7.6,3.5,8.1,8c0.8,7.2,0.8,14.7,0,22.5c-0.5,4.5-3.7,7.7-8.1,8
	C46.2,43.8,40.3,44,34,44z M32.5,6.4c-6.3,0-12.6,0.2-18.8,0.6C10.4,7.2,8,9.7,7.6,13.1c-0.8,7.3-0.8,14.7,0,22.1
	c0.4,3.5,2.8,5.9,6.1,6.1c7.2,0.4,14,0.6,20.3,0.6s12.2-0.2,17.6-0.6c3.3-0.2,5.7-2.7,6.1-6.1c0.8-7.6,0.8-15,0-22.1
	c-0.4-3.5-2.8-5.9-6.1-6.1C45.2,6.6,38.8,6.4,32.5,6.4z M27.2,16.6v14.6l14-7.2L27.2,16.6z"/>
</svg>
